<svg xmlns="http://www.w3.org/2000/svg" style="display: none;">
  <!-- icono de header -->
  <symbol id="arrow" viewBox="0 0 512 512">
    <path fill="currentColor" d="M183.5,390.4c-2.9,0-5.9-1.1-8.2-3.3L53.5,272.6c-4.4-4.1-6.9-9.9-6.9-16s2.5-11.9,6.8-16l121.9-115.8c4.8-4.6,12.4-4.4,17,0.4c4.6,4.8,4.4,12.4-0.4,17L71.5,256.6l120.3,113.1c4.8,4.5,5.1,12.1,0.5,17C189.9,389.1,186.7,390.4,183.5,390.4z"/>
    <path fill="currentColor" d="M328.5,390.4c-3.2,0-6.4-1.3-8.7-3.8c-4.5-4.8-4.3-12.4,0.5-17l120.3-113.1L320.2,142.3c-4.8-4.6-5-12.2-0.4-17c4.6-4.8,12.2-5,17-0.4l121.9,115.8c4.4,4.1,6.9,10,6.8,16s-2.5,11.8-6.9,16L336.7,387.1C334.4,389.3,331.4,390.4,328.5,390.4z"/>
  </symbol>

  <!-- fue ejemplo -->
  <symbol id="heart" viewBox="0 0 24 24">
    <path fill="currentColor" d="M12 21.35l-1.45-1.32C5.4 15.36 2 12.28 2 8.5 2 5.42 4.42 3 7.5 3c1.74 0 3.41.81 4.5 2.09C13.09 3.81 14.76 3 16.5 3 19.58 3 22 5.42 22 8.5c0 3.78-3.4 6.86-8.55 11.54L12 21.35z"/>
  </symbol>

    <!-- icono de header tambien -->
  <symbol id="pdf" viewBox="0 0 512 512">
  <polygon fill="#B12A27" points="475.4,117.8 475.4,512 47.8,512 47.8,0 357.6,0 412.5,54.9"/>
  <rect x="36.6" y="34.3" fill="#F2F2F2" width="205.1" height="91.8"/>
  <g>
    <path fill="#B12A27" d="M110.1,64.4c-0.9-2.2-2.1-4.1-3.8-5.8c-1.7-1.7-3.7-3-6-3.9c-2.4-1-5.1-1.4-8.1-1.4H69.7v58.2h11.4V89.5h11.2c3,0,5.7-0.5,8.1-1.4c2.3-0.9,4.4-2.3,6-3.9c1.7-1.7,2.9-3.5,3.8-5.8c0.8-2.2,1.3-4.5,1.3-6.9C111.4,68.9,111,66.6,110.1,64.4z M97.8,77.1c-1.5,1.4-3.6,2.2-6.2,2.2H81V63.3h10.6c2.6,0,4.7,0.8,6.2,2.3c1.4,1.4,2.2,3.4,2.2,5.8C100,73.7,99.3,75.7,97.8,77.1z"/>
    <path fill="#B12A27" d="M164.6,75.8c-0.1-2-0.2-3.8-0.4-5.5c-0.2-1.7-0.6-3.2-1.1-4.6c-0.5-1.4-1.2-2.7-2.1-3.9c-2-2.9-4.5-5.1-7.3-6.5c-2.9-1.4-6.3-2-10.3-2h-21v58.2h21c4,0,7.4-0.7,10.3-2c2.8-1.4,5.3-3.5,7.3-6.5c0.9-1.2,1.6-2.6,2.1-3.9c0.5-1.4,0.9-2.9,1.1-4.6c0.2-1.7,0.3-3.5,0.4-5.5c0.1-2,0.1-4.1,0.1-6.6C164.6,79.9,164.6,77.7,164.6,75.8z M153.2,88.2c0,1.7-0.2,3.1-0.3,4.3c-0.2,1.1-0.4,2.2-0.7,2.9c-0.3,0.8-0.8,1.6-1.3,2.3c-1.9,2.4-4.7,3.5-8.5,3.5h-8.7V63.3h8.7c3.8,0,6.6,1.2,8.5,3.6c0.5,0.7,1,1.4,1.3,2.2s0.5,1.8,0.7,3c0.2,1.1,0.3,2.6,0.3,4.2c0.1,1.7,0.1,3.7,0.1,6C153.3,84.6,153.3,86.5,153.2,88.2z"/>
    <path fill="#B12A27" d="M213.2,63.3V53.2h-38.4v58.2h11.4V87.8h23V77.6h-23V63.3H213.2z"/>
  </g>
  <polygon fill="#771B1B" points="475.4,117.8 357.6,117.8 357.6,0"/>
  <path fill="#F2F2F2" d="M414.4,370.7c-2.5-4.4-5.9-8.5-10.1-12.3c-3.5-3.2-7.5-6.1-12.1-8.8c-18.5-10.9-45-16.2-81-16.2h-3.6c-2-1.8-4-3.6-6.1-5.5c-13.6-12.3-24.5-25.6-32.9-40.5c16.6-36.6,24.5-69.1,23.5-96.9c-0.2-4.7-0.8-9-2-13.1c-1.8-6.6-4.8-12.4-9-17.1c0-0.1-0.1-0.1-0.2-0.2c-6.7-7.5-16.1-11.8-25.6-11.8c-9.6,0-18.4,4.1-24.8,11.8c-6.3,7.5-9.7,17.9-9.9,30c-0.2,18.5,1.3,36.1,4.4,52.3c0.3,1.3,0.5,2.6,0.8,3.8c3.2,14.7,7.8,28.6,13.9,41.6c-7.1,14.4-14.2,26.8-19.2,35.3c-3.8,6.4-7.9,13.1-12.2,19.8c-19.4,3.5-35.8,7.7-50.1,13c-19.4,7-34.9,16.1-46.1,26.8c-7.2,6.9-12.1,14.3-14.5,22c-2.6,7.9-2.4,15.8,0.5,22.9c2.6,6.6,7.4,12.1,13.7,15.8c1.5,0.9,3.1,1.7,4.7,2.3c4.8,2,10.1,3,15.6,3c12.7,0,25.9-5.5,36.9-15.4c20.7-18.5,42-48.2,54.6-66.9c10.3-1.6,21.6-2.9,34.2-4.3c14.9-1.5,28.1-2.4,40.1-2.9c3.7,3.3,7.2,6.5,10.6,9.5c18.8,16.8,33.2,28.9,46.1,37.5c0,0.1,0.1,0.1,0.2,0.1c5.1,3.4,10,6.2,14.9,8.4c5.5,2.6,11.1,3.9,16.8,3.9c7.2,0,14-2.2,19.7-6.2c5.7-4.1,9.9-10.1,11.8-16.8C420.2,387.7,418.9,378.7,414.4,370.7z"/>
  </symbol>

  <symbol id="arrow-down-icon" viewBox="0 0 24 24" fill="none" xmlns="http://www.w3.org/2000/svg">
  <path opacity="0.5" fill-rule="evenodd" clip-rule="evenodd" d="M3 14.25C3.41421 14.25 3.75 14.5858 3.75 15C3.75 16.4354 3.75159 17.4365 3.85315 18.1919C3.9518 18.9257 4.13225 19.3142 4.40901 19.591C4.68577 19.8678 5.07435 20.0482 5.80812 20.1469C6.56347 20.2484 7.56459 20.25 9 20.25H15C16.4354 20.25 17.4365 20.2484 18.1919 20.1469C18.9257 20.0482 19.3142 19.8678 19.591 19.591C19.8678 19.3142 20.0482 18.9257 20.1469 18.1919C20.2484 17.4365 20.25 16.4354 20.25 15C20.25 14.5858 20.5858 14.25 21 14.25C21.4142 14.25 21.75 14.5858 21.75 15V15.0549C21.75 16.4225 21.75 17.5248 21.6335 18.3918C21.5125 19.2919 21.2536 20.0497 20.6517 20.6516C20.0497 21.2536 19.2919 21.5125 18.3918 21.6335C17.5248 21.75 16.4225 21.75 15.0549 21.75H8.94513C7.57754 21.75 6.47522 21.75 5.60825 21.6335C4.70814 21.5125 3.95027 21.2536 3.34835 20.6517C2.74643 20.0497 2.48754 19.2919 2.36652 18.3918C2.24996 17.5248 2.24998 16.4225 2.25 15.0549C2.25 15.0366 2.25 15.0183 2.25 15C2.25 14.5858 2.58579 14.25 3 14.25Z" fill="currentColor"/>
  <path fill-rule="evenodd" clip-rule="evenodd" d="M12 16.75C12.2106 16.75 12.4114 16.6615 12.5535 16.5061L16.5535 12.1311C16.833 11.8254 16.8118 11.351 16.5061 11.0715C16.2004 10.792 15.726 10.8132 15.4465 11.1189L12.75 14.0682V3C12.75 2.58579 12.4142 2.25 12 2.25C11.5858 2.25 11.25 2.58579 11.25 3V14.0682L8.55353 11.1189C8.27403 10.8132 7.79963 10.792 7.49393 11.0715C7.18823 11.351 7.16698 11.8254 7.44648 12.1311L11.4465 16.5061C11.5886 16.6615 11.7894 16.75 12 16.75Z" fill="currentColor"/>
  </symbol>

  <symbol id="facebook-icon" viewBox="0 0 24 24" fill="none" xmlns="http://www.w3.org/2000/svg">
    <path fill-rule="evenodd" clip-rule="evenodd" d="M20 1C21.6569 1 23 2.34315 23 4V20C23 21.6569 21.6569 23 20 23H4C2.34315 23 1 21.6569 1 20V4C1 2.34315 2.34315 1 4 1H20ZM20 3C20.5523 3 21 3.44772 21 4V20C21 20.5523 20.5523 21 20 21H15V13.9999H17.0762C17.5066 13.9999 17.8887 13.7245 18.0249 13.3161L18.4679 11.9871C18.6298 11.5014 18.2683 10.9999 17.7564 10.9999H15V8.99992C15 8.49992 15.5 7.99992 16 7.99992H18C18.5523 7.99992 19 7.5522 19 6.99992V6.31393C19 5.99091 18.7937 5.7013 18.4813 5.61887C17.1705 5.27295 16 5.27295 16 5.27295C13.5 5.27295 12 6.99992 12 8.49992V10.9999H10C9.44772 10.9999 9 11.4476 9 11.9999V12.9999C9 13.5522 9.44771 13.9999 10 13.9999H12V21H4C3.44772 21 3 20.5523 3 20V4C3 3.44772 3.44772 3 4 3H20Z" fill="currentColor"/>
  </symbol>

</svg>